<svg width="38" height="26" viewBox="0 0 38 26" fill="none" xmlns="http://www.w3.org/2000/svg">
<path fill-rule="evenodd" clip-rule="evenodd" d="M37.1837 19.1299H23.6698V15.312H25.8582C26.174 15.312 26.4463 15.1824 26.6249 14.9471C26.8109 14.702 26.8774 14.367 26.8125 14.0052L26.0506 9.70825C25.9487 9.13581 25.5548 8.75128 25.0704 8.75128H23.0581C21.484 3.67052 17.0478 0 11.8349 0C5.30916 0 0 5.75199 0 12.8221C0 19.8922 5.30916 25.6442 11.8349 25.6442H22.6496C23.2122 25.6442 23.6698 25.1489 23.6698 24.54V23.4332H28.644C28.9515 23.4332 29.2006 23.1627 29.2006 22.8288C29.2006 22.495 28.9515 22.2245 28.644 22.2245H23.6698V20.3387H36.8867V22.2245H30.9103C30.6028 22.2245 30.3537 22.495 30.3537 22.8288C30.3537 23.1627 30.6028 23.4332 30.9103 23.4332H36.8867V25.3956C36.8867 25.7295 37.1359 26 37.4434 26C37.7508 26 38 25.7295 38 25.3956V20.0156C38 19.5272 37.6337 19.1299 37.1837 19.1299ZM24.9615 9.9599L25.6962 14.1033H23.6698V12.8221C23.6698 11.8386 23.5668 10.8805 23.3723 9.9599H24.9615ZM3.15563 13.4265H1.12768C1.40949 19.3506 5.80888 24.1155 11.2783 24.4199V22.4032C11.2783 21.8149 11.7195 21.3362 12.262 21.3362H22.5565V12.822C22.5565 6.62065 18.0458 1.53901 12.3916 1.22418L12.3919 3.49477C12.3932 3.6714 12.395 3.91325 12.2051 4.11669C12.019 4.31626 11.7967 4.31193 11.6754 4.30957L11.6728 4.30952L11.6699 4.30945C11.6369 4.30866 11.5952 4.30765 11.5423 4.30976C9.9344 4.37302 8.40483 4.9586 7.11832 6.00332C7.01835 6.08455 6.90138 6.12371 6.78538 6.12371C6.61586 6.12371 6.4485 6.04007 6.33917 5.88132C6.15504 5.61404 6.20536 5.23523 6.45154 5.03539C7.86073 3.89099 9.52509 3.22918 11.2783 3.11355V1.22418C5.8088 1.52861 1.40941 6.29357 1.12768 12.2177H2.87227C2.97216 10.4569 3.50906 8.76643 4.4316 7.31493C4.60616 7.04023 4.95299 6.97117 5.20593 7.16078C5.45894 7.35039 5.52254 7.72678 5.34791 8.00148C4.5033 9.33025 4.02815 10.8882 3.97375 12.507C3.97182 12.5641 3.97278 12.6075 3.97375 12.6495C3.97679 12.7793 3.98228 13.0209 3.79763 13.2245C3.62744 13.4122 3.42186 13.4273 3.27164 13.4273C3.25664 13.4273 3.24225 13.4271 3.22852 13.427L3.15563 13.4265ZM22.5566 24.4355H12.3916V22.545H22.5566V24.4355ZM9.85167 15.6H13.8987C14.529 15.6 15.0418 15.1112 15.0418 14.5103V12.354C15.0418 11.7545 14.529 11.2667 13.8987 11.2667H9.85167C9.22134 11.2667 8.7085 11.7545 8.7085 12.354V14.5103C8.7085 15.1112 9.22134 15.6 9.85167 15.6ZM9.98001 12.4773H13.7703V14.3894H9.98001V12.4773Z" fill="black"/>
<path fill-rule="evenodd" clip-rule="evenodd" d="M17.1986 19.9333H11.8761C8.3833 19.9333 5.54167 17.0169 5.54167 13.4322C5.54167 9.84872 8.3833 6.93333 11.8761 6.93333C15.3677 6.93333 18.2083 9.8488 18.2083 13.4322V18.8937C18.2083 19.4669 17.7554 19.9333 17.1986 19.9333ZM17.0828 13.4322C17.0828 10.487 14.7471 8.09082 11.8761 8.09082C9.00391 8.09082 6.66719 10.487 6.66719 13.4322C6.66719 16.3787 9.00391 18.7758 11.8761 18.7758H17.0828V13.4322Z" fill="black"/>
</svg>
